<mxfile host="app.diagrams.net" modified="2023-09-03T11:54:22.736Z" agent="Mozilla/5.0 (X11; Ubuntu; Linux x86_64; rv:109.0) Gecko/20100101 Firefox/116.0" etag="b4Hqs2x-rLxxZ3cjNfmc" version="21.6.9" type="device">
  <diagram name="PÃ¡gina-1" id="mcx7f6Sgl1GjyKLcQRB5">
    <mxGraphModel dx="1434" dy="720" grid="1" gridSize="10" guides="1" tooltips="1" connect="1" arrows="1" fold="1" page="1" pageScale="1" pageWidth="827" pageHeight="1169" math="0" shadow="0">
      <root>
        <mxCell id="0" />
        <mxCell id="1" parent="0" />
        <mxCell id="K95Ks8S6JovXR463SzED-1" value="AGS" style="swimlane;fontStyle=1;align=center;verticalAlign=top;childLayout=stackLayout;horizontal=1;startSize=26;horizontalStack=0;resizeParent=1;resizeParentMax=0;resizeLast=0;collapsible=1;marginBottom=0;whiteSpace=wrap;html=1;" parent="1" vertex="1">
          <mxGeometry x="110" y="50" width="400" height="140" as="geometry" />
        </mxCell>
        <mxCell id="K95Ks8S6JovXR463SzED-2" value="&lt;div&gt;&lt;u&gt;- periodoMatricula: boolean&lt;/u&gt;&lt;br&gt;&lt;/div&gt;&lt;div&gt;+ pessoaLogada: Pessoa&lt;/div&gt;&lt;div&gt;&lt;br&gt;&lt;/div&gt;" style="text;strokeColor=none;fillColor=none;align=left;verticalAlign=top;spacingLeft=4;spacingRight=4;overflow=hidden;rotatable=0;points=[[0,0.5],[1,0.5]];portConstraint=eastwest;whiteSpace=wrap;html=1;" parent="K95Ks8S6JovXR463SzED-1" vertex="1">
          <mxGeometry y="26" width="400" height="34" as="geometry" />
        </mxCell>
        <mxCell id="K95Ks8S6JovXR463SzED-3" value="" style="line;strokeWidth=1;fillColor=none;align=left;verticalAlign=middle;spacingTop=-1;spacingLeft=3;spacingRight=3;rotatable=0;labelPosition=right;points=[];portConstraint=eastwest;strokeColor=inherit;" parent="K95Ks8S6JovXR463SzED-1" vertex="1">
          <mxGeometry y="60" width="400" height="8" as="geometry" />
        </mxCell>
        <mxCell id="K95Ks8S6JovXR463SzED-4" value="&lt;div&gt;+ logar(idUsuario: String, senhaUsuario: String): void&lt;/div&gt;&lt;div&gt;+ loginMenu(): void&lt;/div&gt;&lt;div&gt;+ actionMenu(): void&lt;/div&gt;&lt;div&gt;+ &lt;u&gt;alterarPeriodoMatricula(): void&lt;/u&gt;&lt;br&gt;&lt;/div&gt;" style="text;strokeColor=none;fillColor=none;align=left;verticalAlign=top;spacingLeft=4;spacingRight=4;overflow=hidden;rotatable=0;points=[[0,0.5],[1,0.5]];portConstraint=eastwest;whiteSpace=wrap;html=1;" parent="K95Ks8S6JovXR463SzED-1" vertex="1">
          <mxGeometry y="68" width="400" height="72" as="geometry" />
        </mxCell>
      </root>
    </mxGraphModel>
  </diagram>
</mxfile>
